<?xml version="1.0" standalone="no"?>
<!DOCTYPE svg PUBLIC "-//W3C//DTD SVG 20010904//EN"
 "http://www.w3.org/TR/2001/REC-SVG-20010904/DTD/svg10.dtd">
<svg version="1.0" xmlns="http://www.w3.org/2000/svg"
 width="255.000000pt" height="247.000000pt" viewBox="0 0 255.000000 247.000000"
 preserveAspectRatio="xMidYMid meet">

<g transform="translate(0.000000,247.000000) scale(0.100000,-0.100000)"
fill="#000000" stroke="none">
<path d="M1343 2226 c-220 -51 -389 -232 -429 -459 -15 -88 -8 -194 19 -258
l13 -32 46 74 c186 296 533 473 872 443 l80 -7 -42 51 c-68 80 -166 145 -271
178 -68 22 -214 26 -288 10z"/>
<path d="M911 2038 c12 -23 20 -24 12 -1 -5 13 -2 15 11 10 9 -4 15 -3 11 2
-3 6 -14 9 -24 8 -16 -1 -17 -5 -10 -19z"/>
<path d="M817 2034 c-16 -9 -26 -18 -23 -21 3 -3 12 0 20 6 8 7 21 9 27 5 8
-5 9 -3 4 6 -5 8 -3 11 6 8 8 -3 13 -11 11 -17 -1 -7 2 -10 8 -6 8 5 7 11 -1
21 -14 17 -17 17 -52 -2z"/>
<path d="M750 1985 c-13 -14 -18 -25 -12 -25 6 0 16 9 22 20 6 11 16 17 22 14
7 -4 8 -3 4 4 -9 16 -9 16 -36 -13z"/>
<path d="M766 1963 c-6 -14 -5 -15 5 -6 7 7 10 15 7 18 -3 3 -9 -2 -12 -12z"/>
<path d="M866 1953 c-6 -14 -5 -15 5 -6 7 7 10 15 7 18 -3 3 -9 -2 -12 -12z"/>
<path d="M706 1923 c-6 -14 -5 -15 5 -6 7 7 10 15 7 18 -3 3 -9 -2 -12 -12z"/>
<path d="M830 1926 c0 -2 7 -7 16 -10 8 -3 12 -2 9 4 -6 10 -25 14 -25 6z"/>
<path d="M834 1902 c3 -5 1 -12 -6 -14 -8 -3 -9 -6 -1 -11 6 -4 13 0 17 8 3 8
0 17 -6 21 -6 4 -8 3 -4 -4z"/>
<path d="M1825 1880 c6 -10 4 -12 -11 -6 -15 6 -17 5 -6 -5 9 -9 15 -10 23 -2
8 8 7 13 -2 18 -8 6 -10 4 -4 -5z"/>
<path d="M1940 1880 c-9 -6 -10 -10 -3 -10 6 0 15 5 18 10 8 12 4 12 -15 0z"/>
<path d="M506 1807 c-114 -114 -166 -238 -166 -397 1 -106 12 -155 57 -250 26
-55 55 -94 107 -145 116 -115 237 -165 397 -165 72 0 181 19 195 33 3 2 -30
26 -73 53 -104 64 -236 197 -301 303 -99 162 -147 342 -140 527 2 63 3 114 1
114 -2 0 -37 -33 -77 -73z"/>
<path d="M1966 1872 c-2 -4 4 -8 14 -8 10 0 16 4 14 8 -3 4 -9 8 -14 8 -5 0
-11 -4 -14 -8z"/>
<path d="M1760 1854 c0 -13 -3 -15 -8 -7 -6 9 -19 2 -46 -25 -35 -36 -36 -40
-19 -53 16 -13 17 -12 5 3 -11 14 -10 18 9 31 12 9 26 14 33 13 6 -2 8 -1 4 1
-15 9 -8 25 7 19 16 -6 33 19 21 31 -3 4 -6 -2 -6 -13z"/>
<path d="M2024 1845 c11 -8 24 -15 30 -15 5 0 1 7 -10 15 -10 8 -23 14 -29 14
-5 0 -1 -6 9 -14z"/>
<path d="M682 1803 c-2 -33 2 -45 17 -53 14 -7 22 -7 26 0 4 6 3 10 -2 9 -25
-4 -32 5 -36 44 l-4 42 -1 -42z"/>
<path d="M2055 1810 c-4 -6 -12 -7 -18 -3 -7 4 -5 -1 3 -12 14 -17 15 -17 18
-1 2 11 10 15 18 12 9 -3 12 -1 9 4 -8 13 -22 13 -30 0z"/>
<path d="M1723 1784 c0 -6 10 -11 22 -10 13 0 21 6 18 11 -5 15 -40 13 -40 -1z"/>
<path d="M1830 1776 c0 -2 11 -6 25 -8 14 -3 25 -1 25 3 0 5 -11 9 -25 9 -14
0 -25 -2 -25 -4z"/>
<path d="M2096 1763 c-6 -14 -5 -15 5 -6 7 7 10 15 7 18 -3 3 -9 -2 -12 -12z"/>
<path d="M2010 1716 c0 -2 7 -7 16 -10 8 -3 12 -2 9 4 -6 10 -25 14 -25 6z"/>
<path d="M700 1701 c0 -6 4 -13 10 -16 6 -3 7 1 4 9 -7 18 -14 21 -14 7z"/>
<path d="M2075 1681 c-3 -6 10 -21 30 -34 19 -13 32 -27 28 -30 -3 -4 -1 -7 5
-7 18 0 14 21 -5 37 -17 14 -17 14 0 9 11 -3 16 -2 12 4 -3 6 -17 7 -30 4 -13
-3 -26 0 -31 7 -5 9 -2 10 10 6 10 -4 15 -3 11 3 -8 13 -22 13 -30 1z"/>
<path d="M1602 1656 c-56 -14 -75 -26 -55 -33 40 -14 173 -113 232 -171 191
-192 298 -472 277 -730 l-7 -85 40 32 c64 51 109 109 152 196 81 164 80 327
-1 490 -68 139 -166 228 -308 282 -82 31 -245 41 -330 19z"/>
<path d="M790 1641 c0 -6 4 -13 10 -16 6 -3 7 1 4 9 -7 18 -14 21 -14 7z"/>
<path d="M755 1620 c10 -11 20 -20 23 -20 3 0 -3 9 -13 20 -10 11 -20 20 -23
20 -3 0 3 -9 13 -20z"/>
<path d="M805 1580 c3 -5 8 -10 11 -10 2 0 4 5 4 10 0 6 -5 10 -11 10 -5 0 -7
-4 -4 -10z"/>
<path d="M1506 1473 c-25 -79 -89 -199 -135 -252 -32 -38 -41 -43 -65 -37 -40
10 -164 134 -221 220 -27 42 -52 76 -56 76 -6 0 -88 -171 -119 -251 l-19 -46
63 -62 c34 -33 64 -61 66 -61 3 0 5 43 5 95 1 51 4 97 7 100 4 4 44 -25 89
-64 95 -80 194 -135 220 -120 53 28 131 116 165 185 20 40 40 71 44 69 4 -3
12 -24 18 -47 46 -181 3 -371 -113 -507 -65 -76 -107 -107 -210 -157 -138 -67
-223 -86 -396 -88 l-147 -1 18 -25 c30 -41 102 -106 154 -139 90 -56 167 -76
296 -76 128 0 207 20 294 75 102 65 201 185 246 300 44 112 46 345 4 492 -37
130 -107 275 -172 356 l-18 23 -18 -58z"/>
<path d="M1842 852 c3 -36 12 -49 23 -32 5 8 12 7 23 -2 14 -10 15 -10 5 2
-10 10 -9 16 3 25 14 10 14 12 1 24 -12 9 -17 9 -23 0 -4 -7 -3 -9 4 -5 6 3
13 2 16 -3 13 -20 -24 -19 -39 2 -15 22 -16 21 -13 -11z m23 -11 c3 -5 2 -12
-3 -15 -5 -3 -9 1 -9 9 0 17 3 19 12 6z"/>
<path d="M510 845 c-8 -10 -9 -15 -2 -15 6 0 9 -7 6 -15 -4 -8 -1 -15 4 -15 6
0 9 12 6 28 l-5 27 34 -33 c25 -24 37 -30 42 -21 5 7 4 10 -3 5 -5 -3 -12 -3
-14 1 -2 5 -15 18 -29 31 -23 20 -27 21 -39 7z"/>
<path d="M1910 831 c0 -5 7 -15 17 -22 15 -13 15 -12 4 9 -12 23 -21 28 -21
13z"/>
<path d="M524 785 c-10 -8 -14 -15 -8 -15 6 0 17 7 24 15 16 19 9 19 -16 0z"/>
<path d="M557 783 c-4 -3 -7 -11 -7 -17 0 -6 4 -5 9 3 7 10 10 10 16 1 5 -8 1
-16 -8 -21 -15 -9 -16 -44 -2 -58 4 -3 4 7 1 22 -2 15 -1 27 4 27 5 0 15 10
21 23 6 12 8 19 4 15 -5 -4 -13 -3 -20 2 -7 5 -15 7 -18 3z"/>
<path d="M657 759 c7 -7 15 -10 18 -7 3 3 -2 9 -12 12 -14 6 -15 5 -6 -5z"/>
<path d="M1945 750 c2 -27 15 -38 15 -12 0 11 -4 23 -8 26 -5 3 -8 -4 -7 -14z"/>
<path d="M526 747 c3 -10 9 -15 12 -12 3 3 0 11 -7 18 -10 9 -11 8 -5 -6z"/>
<path d="M1842 740 c0 -14 2 -19 5 -12 2 6 2 18 0 25 -3 6 -5 1 -5 -13z"/>
<path d="M685 740 c-3 -6 1 -7 9 -4 18 7 21 14 7 14 -6 0 -13 -4 -16 -10z"/>
<path d="M978 734 c-7 -6 -33 -12 -63 -14 -20 -1 -20 -1 -1 -12 15 -8 21 -8
24 0 2 6 9 9 16 6 7 -3 19 2 26 11 12 14 10 22 -2 9z"/>
<path d="M823 713 c9 -2 25 -2 35 0 9 3 1 5 -18 5 -19 0 -27 -2 -17 -5z"/>
<path d="M940 690 c-8 -5 -12 -12 -9 -15 4 -3 12 1 19 10 14 17 11 19 -10 5z"/>
<path d="M1833 685 c0 -8 4 -12 9 -9 5 3 6 10 3 15 -9 13 -12 11 -12 -6z"/>
<path d="M1939 673 c-13 -16 -12 -17 4 -4 16 13 21 21 13 21 -2 0 -10 -8 -17
-17z"/>
<path d="M1820 651 c0 -6 4 -13 10 -16 6 -3 7 1 4 9 -7 18 -14 21 -14 7z"/>
<path d="M1947 645 c-4 -8 -1 -17 6 -21 7 -4 9 -4 5 1 -4 4 -3 14 3 22 7 8 8
13 1 13 -5 0 -12 -7 -15 -15z"/>
<path d="M876 638 c3 -5 10 -6 15 -3 13 9 11 12 -6 12 -8 0 -12 -4 -9 -9z"/>
<path d="M847 626 c-4 -10 -1 -13 8 -9 8 3 12 9 9 14 -7 12 -11 11 -17 -5z"/>
<path d="M709 607 c5 -5 26 -7 47 -5 l39 3 -47 5 c-26 3 -43 1 -39 -3z"/>
<path d="M1936 595 c-9 -26 -7 -32 5 -12 6 10 9 21 6 23 -2 3 -7 -2 -11 -11z"/>
<path d="M1823 585 c0 -7 6 -11 14 -8 7 3 13 6 13 8 0 2 -6 5 -13 8 -8 3 -14
-1 -14 -8z"/>
<path d="M1780 555 c-7 -9 -8 -15 -2 -15 5 0 12 7 16 15 3 8 4 15 2 15 -2 0
-9 -7 -16 -15z"/>
<path d="M1841 480 c-12 -11 -27 -18 -31 -15 -5 3 -11 1 -15 -5 -12 -19 21
-10 55 15 19 14 30 25 24 25 -5 -1 -20 -9 -33 -20z"/>
<path d="M1710 460 c0 -5 7 -7 15 -4 8 4 15 8 15 10 0 2 -7 4 -15 4 -8 0 -15
-4 -15 -10z"/>
<path d="M1686 442 c-3 -5 1 -9 9 -9 8 0 12 4 9 9 -3 4 -7 8 -9 8 -2 0 -6 -4
-9 -8z"/>
</g>
</svg>
